<svg width="147" height="30" viewBox="0 0 147 30" fill="none" xmlns="http://www.w3.org/2000/svg">
<path d="M16.51 1H1.69V2.5H8.29V22H9.91V2.5H16.51V1Z" fill="#00A500"/>
<path d="M27.2859 22.33C31.6359 22.33 35.1459 18.94 35.1459 14.5C35.1459 10.06 31.6359 6.67 27.2859 6.67C22.9059 6.67 19.3959 10.06 19.3959 14.5C19.3959 18.94 22.9059 22.33 27.2859 22.33ZM27.2859 20.89C23.7159 20.89 20.9259 18.07 20.9259 14.5C20.9259 10.93 23.7159 8.11 27.2859 8.11C30.8559 8.11 33.6159 10.93 33.6159 14.5C33.6159 18.07 30.8559 20.89 27.2859 20.89Z" fill="#00A500"/>
<path d="M53.8457 22L45.4757 14.2L53.5457 7H51.4457L43.8557 13.81V7H42.3557V22H43.8557V14.62L51.8057 22H53.8457Z" fill="#00A500"/>
<path d="M70.9577 7H58.5377V8.47H63.9977V22H65.4977V8.47H70.9577V7Z" fill="#00A500"/>
<path d="M83.5546 22.33C87.9046 22.33 91.4146 18.94 91.4146 14.5C91.4146 10.06 87.9046 6.67 83.5546 6.67C79.1746 6.67 75.6646 10.06 75.6646 14.5C75.6646 18.94 79.1746 22.33 83.5546 22.33ZM83.5546 20.89C79.9846 20.89 77.1946 18.07 77.1946 14.5C77.1946 10.93 79.9846 8.11 83.5546 8.11C87.1246 8.11 89.8846 10.93 89.8846 14.5C89.8846 18.07 87.1246 20.89 83.5546 20.89Z" fill="#00A500"/>
<path d="M108.014 7H98.6245V22H100.124V8.47H108.014V7Z" fill="#00A500"/>
<path d="M126.183 7L120.963 20.35L114.903 7H113.283L120.183 22.27L119.853 23.08C118.923 25.27 117.393 26.77 115.383 26.59V28C117.963 28.21 120.183 26.26 121.323 23.38L127.803 7H126.183Z" fill="#00A500"/>
<path d="M145.368 7H134.808V15.7C134.808 19.57 133.578 20.8 131.268 20.59V22C134.088 22.21 136.308 20.95 136.308 15.7V8.47H143.868V22H145.368V7Z" fill="#00A500"/>
<path fill-rule="evenodd" clip-rule="evenodd" d="M17.51 0V3.5H10.91V23H7.29V3.5H0.690002V0H17.51ZM16.51 1V2.5H9.91V22H8.29V2.5H1.69V1H16.51ZM36.1459 14.5C36.1459 19.5048 32.1756 23.33 27.2859 23.33C22.3686 23.33 18.3959 19.5072 18.3959 14.5C18.3959 9.49277 22.3686 5.67 27.2859 5.67C32.1756 5.67 36.1459 9.49524 36.1459 14.5ZM21.9259 14.5C21.9259 17.5239 24.2743 19.89 27.2859 19.89C30.2913 19.89 32.6159 17.5301 32.6159 14.5C32.6159 11.4699 30.2913 9.11 27.2859 9.11C24.2743 9.11 21.9259 11.4761 21.9259 14.5ZM56.3856 23H51.4131L44.8557 16.9128V23H41.3557V6H44.8557V11.5693L51.0629 6H56.1686L46.9598 14.2161L56.3856 23ZM45.4757 14.2L53.5457 7H51.4457L43.8557 13.81V7H42.3557V22H43.8557V14.62L51.8057 22H53.8457L45.4757 14.2ZM71.9577 6V9.47H66.4977V23H62.9977V9.47H57.5377V6H71.9577ZM70.9577 7V8.47H65.4977V22H63.9977V8.47H58.5377V7H70.9577ZM92.4146 14.5C92.4146 19.5048 88.4443 23.33 83.5546 23.33C78.6374 23.33 74.6646 19.5072 74.6646 14.5C74.6646 9.49277 78.6374 5.67 83.5546 5.67C88.4443 5.67 92.4146 9.49524 92.4146 14.5ZM78.1946 14.5C78.1946 17.5239 80.543 19.89 83.5546 19.89C86.56 19.89 88.8846 17.5301 88.8846 14.5C88.8846 11.4699 86.56 9.11 83.5546 9.11C80.543 9.11 78.1946 11.4761 78.1946 14.5ZM109.014 6V9.47H101.124V23H97.6245V6H109.014ZM98.6245 7H108.014V8.47H100.124V22H98.6245V7ZM125.5 6H129.274L122.253 23.7479C121.031 26.8346 118.504 29.2574 115.302 28.9967L114.383 28.9219V25.4964L115.472 25.594C116.821 25.7148 118.059 24.7427 118.93 22.696C118.931 22.6937 118.932 22.6914 118.933 22.6891L119.095 22.2904L111.734 6H115.547L120.894 17.7795L125.5 6ZM120.963 20.35L114.903 7H113.283L120.183 22.27L119.853 23.08C119.025 25.0302 117.721 26.4332 116.026 26.59C115.817 26.6093 115.603 26.6097 115.383 26.59V28C115.639 28.0208 115.891 28.0204 116.139 28C116.221 27.9933 116.302 27.9843 116.383 27.9732C118.53 27.6797 120.333 25.8803 121.323 23.38L127.803 7H126.183L120.963 20.35ZM146.368 6V23H142.868V9.47H137.308V15.7C137.308 18.4305 136.736 20.3721 135.566 21.5902C134.369 22.8371 132.755 23.1135 131.193 22.9972L130.268 22.9283V19.495L131.358 19.5941C132.319 19.6814 132.804 19.4598 133.115 19.0603C133.498 18.5691 133.808 17.5813 133.808 15.7V6H146.368ZM134.808 7H145.368V22H143.868V8.47H136.308V15.7C136.308 20.95 134.088 22.21 131.268 22V20.59C131.592 20.6195 131.895 20.6206 132.176 20.59C133.899 20.4027 134.808 19.0268 134.808 15.7V7ZM35.1459 14.5C35.1459 18.94 31.6359 22.33 27.2859 22.33C22.9059 22.33 19.3959 18.94 19.3959 14.5C19.3959 10.06 22.9059 6.67 27.2859 6.67C31.6359 6.67 35.1459 10.06 35.1459 14.5ZM20.9259 14.5C20.9259 18.07 23.7159 20.89 27.2859 20.89C30.8559 20.89 33.6159 18.07 33.6159 14.5C33.6159 10.93 30.8559 8.11 27.2859 8.11C23.7159 8.11 20.9259 10.93 20.9259 14.5ZM91.4146 14.5C91.4146 18.94 87.9046 22.33 83.5546 22.33C79.1746 22.33 75.6646 18.94 75.6646 14.5C75.6646 10.06 79.1746 6.67 83.5546 6.67C87.9046 6.67 91.4146 10.06 91.4146 14.5ZM77.1946 14.5C77.1946 18.07 79.9846 20.89 83.5546 20.89C87.1246 20.89 89.8846 18.07 89.8846 14.5C89.8846 10.93 87.1246 8.11 83.5546 8.11C79.9846 8.11 77.1946 10.93 77.1946 14.5Z" fill="#00A500"/>
</svg>
