<svg width="172" height="25" viewBox="0 0 172 25" fill="none" xmlns="http://www.w3.org/2000/svg">
<path d="M16.51 2.00001H1.69V3.50001H8.29V23H9.91V3.50001H16.51V2.00001Z" fill="#00A500"/>
<path d="M31.84 23.33C37.9 23.33 42.67 18.5 42.67 12.5C42.67 6.50001 37.9 1.67001 31.84 1.67001C25.78 1.67001 21.01 6.50001 21.01 12.5C21.01 18.5 25.78 23.33 31.84 23.33ZM31.84 21.8C26.65 21.8 22.6 17.66 22.6 12.5C22.6 7.34001 26.65 3.20001 31.84 3.20001C37.03 3.20001 41.08 7.34001 41.08 12.5C41.08 17.66 37.03 21.8 31.84 21.8Z" fill="#00A500"/>
<path d="M64.5522 23L53.6322 12.2L64.2522 2.00001H62.1222L51.8922 11.78V2.00001H50.3022V23H51.8922V12.65L62.4222 23H64.5522Z" fill="#00A500"/>
<path d="M83.9702 2.00001H69.1502V3.50001H75.7502V23H77.3702V3.50001H83.9702V2.00001Z" fill="#00A500"/>
<path d="M99.3002 23.33C105.36 23.33 110.13 18.5 110.13 12.5C110.13 6.50001 105.36 1.67001 99.3002 1.67001C93.2402 1.67001 88.4702 6.50001 88.4702 12.5C88.4702 18.5 93.2402 23.33 99.3002 23.33ZM99.3002 21.8C94.1102 21.8 90.0602 17.66 90.0602 12.5C90.0602 7.34001 94.1102 3.20001 99.3002 3.20001C104.49 3.20001 108.54 7.34001 108.54 12.5C108.54 17.66 104.49 21.8 99.3002 21.8Z" fill="#00A500"/>
<path d="M129.252 2.00001H117.762V23H119.352V3.50001H129.252V2.00001Z" fill="#00A500"/>
<path d="M148.487 2.00001L142.667 15.59L136.187 2.00001H134.537L141.917 17.39L141.557 18.23C140.477 20.75 139.007 21.77 136.757 21.53V23C139.607 23.21 141.677 21.86 143.147 18.41L150.137 2.00001H148.487Z" fill="#00A500"/>
<path d="M152.277 23C156.147 23.33 158.397 21.11 158.397 14.12V3.50001H168.477V23H170.097V2.00001H156.807V14.09C156.807 20.21 155.037 21.92 152.277 21.59V23Z" fill="#00A500"/>
<path fill-rule="evenodd" clip-rule="evenodd" d="M17.51 1.00001V4.50001H10.91V24H7.29V4.50001H0.690002V1.00001H17.51ZM16.51 2.00001V3.50001H9.91V23H8.29V3.50001H1.69V2.00001H16.51ZM43.67 12.5C43.67 19.0487 38.4559 24.33 31.84 24.33C25.2241 24.33 20.01 19.0487 20.01 12.5C20.01 5.95135 25.2241 0.670013 31.84 0.670013C38.4559 0.670013 43.67 5.95135 43.67 12.5ZM23.6 12.5C23.6 17.1183 27.2128 20.8 31.84 20.8C36.4672 20.8 40.08 17.1183 40.08 12.5C40.08 7.88169 36.4672 4.20001 31.84 4.20001C27.2128 4.20001 23.6 7.88169 23.6 12.5ZM66.9854 24H62.013L52.8922 15.0351V24H49.3022V1.00001H52.8922V9.44054L61.7211 1.00001H66.737L55.0649 12.2105L66.9854 24ZM53.6322 12.2L64.2522 2.00001H62.1222L51.8922 11.78V2.00001H50.3022V23H51.8922V12.65L62.4222 23H64.5522L53.6322 12.2ZM84.9702 1.00001V4.50001H78.3702V24H74.7502V4.50001H68.1502V1.00001H84.9702ZM83.9702 2.00001V3.50001H77.3702V23H75.7502V3.50001H69.1502V2.00001H83.9702ZM111.13 12.5C111.13 19.0487 105.916 24.33 99.3002 24.33C92.6843 24.33 87.4702 19.0487 87.4702 12.5C87.4702 5.95135 92.6843 0.670013 99.3002 0.670013C105.916 0.670013 111.13 5.95135 111.13 12.5ZM91.0602 12.5C91.0602 17.1183 94.673 20.8 99.3002 20.8C103.927 20.8 107.54 17.1183 107.54 12.5C107.54 7.88169 103.927 4.20001 99.3002 4.20001C94.673 4.20001 91.0602 7.88169 91.0602 12.5ZM130.252 1.00001V4.50001H120.352V24H116.762V1.00001H130.252ZM117.762 2.00001H129.252V3.50001H119.352V23H117.762V2.00001ZM147.828 1.00001H151.65L144.067 18.8019L143.147 18.41L150.137 2.00001H148.487L142.667 15.59L136.187 2.00001H134.537L141.917 17.39L141.557 18.23C140.646 20.3559 139.458 21.4142 137.757 21.5492C137.442 21.5743 137.109 21.5676 136.757 21.53V23C139.607 23.21 141.677 21.86 143.147 18.41L144.067 18.8019C143.288 20.6308 142.305 22.0107 141.044 22.8959C139.765 23.7942 138.295 24.1161 136.684 23.9973L135.757 23.929V20.4177L136.863 20.5357C137.805 20.6361 138.483 20.4677 139.029 20.0915C139.598 19.6991 140.138 19.0024 140.638 17.8361L140.819 17.4132L132.949 1.00001H136.818L142.618 13.164L147.828 1.00001ZM151.277 23.9184V20.4633L152.396 20.5971C152.977 20.6665 153.433 20.6196 153.796 20.4826C154.144 20.3507 154.465 20.1135 154.752 19.6942C155.361 18.8033 155.807 17.1049 155.807 14.09V1.00001H171.097V24H167.477V4.50001H159.397V14.12C159.397 17.6744 158.835 20.2523 157.587 21.9071C156.269 23.6545 154.348 24.1802 152.192 23.9964L151.277 23.9184ZM156.807 2.00001H170.097V23H168.477V3.50001H158.397V14.12C158.397 21.11 156.147 23.33 152.277 23V21.59C152.627 21.6318 152.961 21.6409 153.277 21.6124C155.457 21.4158 156.807 19.4345 156.807 14.09V2.00001ZM42.67 12.5C42.67 18.5 37.9 23.33 31.84 23.33C25.78 23.33 21.01 18.5 21.01 12.5C21.01 6.50001 25.78 1.67001 31.84 1.67001C37.9 1.67001 42.67 6.50001 42.67 12.5ZM22.6 12.5C22.6 17.66 26.65 21.8 31.84 21.8C37.03 21.8 41.08 17.66 41.08 12.5C41.08 7.34001 37.03 3.20001 31.84 3.20001C26.65 3.20001 22.6 7.34001 22.6 12.5ZM110.13 12.5C110.13 18.5 105.36 23.33 99.3002 23.33C93.2402 23.33 88.4702 18.5 88.4702 12.5C88.4702 6.50001 93.2402 1.67001 99.3002 1.67001C105.36 1.67001 110.13 6.50001 110.13 12.5ZM90.0602 12.5C90.0602 17.66 94.1102 21.8 99.3002 21.8C104.49 21.8 108.54 17.66 108.54 12.5C108.54 7.34001 104.49 3.20001 99.3002 3.20001C94.1102 3.20001 90.0602 7.34001 90.0602 12.5Z" fill="#00A500"/>
</svg>
